<?xml version="1.0" encoding="iso-8859-1"?>
<svg width="160" height="31" viewBox="0 0 160 31" fill="none" xmlns="http://www.w3.org/2000/svg">
    <path fill-rule="evenodd" clip-rule="evenodd" d="M30.0873 10.8166C31.6872 11.1366 32.7538 12.7098 32.4338 14.3364C32.1138 15.9363 30.5406 17.0029 28.914 16.6829C27.3141 16.3629 26.2475 14.7897 26.5675 13.1631C26.8875 11.5365 28.4607 10.4966 30.0873 10.8166Z" fill="#EF4E23"/>
    <path fill-rule="evenodd" clip-rule="evenodd" d="M3.98273 5.69688C5.28932 5.96353 6.11594 7.24346 5.87595 8.52338C5.6093 9.82997 4.32938 10.6566 3.04945 10.4166C1.74286 10.1499 0.889576 8.87003 1.15623 7.5901C1.39621 6.28351 2.67614 5.43023 3.98273 5.69688Z" fill="#EF4E23"/>
    <path fill-rule="evenodd" clip-rule="evenodd" d="M1.84922 13.5365C2.67584 13.6964 3.23581 14.5231 3.04915 15.3497C2.88916 16.1763 2.06255 16.7363 1.23593 16.5496C0.409309 16.3896 -0.150659 15.563 0.0359969 14.7364C0.195988 13.9098 1.02261 13.3765 1.84922 13.5365Z" fill="#EF4E23"/>
    <path fill-rule="evenodd" clip-rule="evenodd" d="M14.4356 27.2156C15.3955 27.4023 16.0088 28.3356 15.8222 29.2955C15.6355 30.2555 14.7022 30.8687 13.7423 30.6821C12.7823 30.4954 12.169 29.5622 12.3557 28.6022C12.569 27.6423 13.5023 27.029 14.4356 27.2156Z" fill="#EF4E23"/>
    <path fill-rule="evenodd" clip-rule="evenodd" d="M8.88886 1.19053C9.8488 1.37718 10.4888 2.33712 10.2754 3.29707C10.0888 4.25701 9.12885 4.89696 8.1689 4.68364C7.20896 4.49699 6.569 3.53705 6.78232 2.57711C6.99564 1.61716 7.92892 1.00387 8.88886 1.19053Z" fill="#EF4E23"/>
    <path fill-rule="evenodd" clip-rule="evenodd" d="M14.6216 0.0172341C15.2349 0.150559 15.6349 0.737189 15.5016 1.35048C15.3682 1.96378 14.7816 2.36376 14.1683 2.23043C13.555 2.09711 13.155 1.51048 13.2884 0.897184C13.4217 0.310554 14.0083 -0.089426 14.6216 0.0172341Z" fill="#EF4E23"/>
    <path fill-rule="evenodd" clip-rule="evenodd" d="M21.8747 0.0705949C23.1813 0.337246 24.0346 1.61717 23.7679 2.8971C23.5013 4.20369 22.2214 5.03031 20.9414 4.79032C19.6348 4.52367 18.8082 3.24374 19.0482 1.96382C19.2882 0.657229 20.5681 -0.196056 21.8747 0.0705949Z" fill="#EF4E23"/>
    <path fill-rule="evenodd" clip-rule="evenodd" d="M27.3675 5.6436C28.1408 5.80359 28.6208 6.55021 28.4608 7.29684C28.3008 8.07013 27.5542 8.5501 26.8076 8.39011C26.0343 8.23012 25.5543 7.48349 25.7143 6.73687C25.8743 5.99024 26.6209 5.4836 27.3675 5.6436Z" fill="#EF4E23"/>
    <path fill-rule="evenodd" clip-rule="evenodd" d="M28.5147 19.6961C29.4213 19.8828 30.0079 20.7627 29.8213 21.6693C29.6346 22.5759 28.7547 23.1626 27.8481 22.9759C26.9414 22.7892 26.3548 21.9093 26.5415 21.0027C26.7281 20.1227 27.6081 19.5361 28.5147 19.6961Z" fill="#EF4E23"/>
    <path fill-rule="evenodd" clip-rule="evenodd" d="M25.0744 24.8691C25.501 24.9491 25.7677 25.3758 25.6877 25.8024C25.6077 26.2291 25.181 26.4957 24.7544 26.4157C24.3278 26.3357 24.0611 25.9091 24.1411 25.4824C24.2211 25.0558 24.6477 24.7891 25.0744 24.8691Z" fill="#EF4E23"/>
    <path fill-rule="evenodd" clip-rule="evenodd" d="M20.5412 27.0557C21.1812 27.189 21.6078 27.829 21.4745 28.4689C21.3411 29.1089 20.7012 29.5355 20.0612 29.4022C19.4213 29.2689 18.9946 28.6289 19.1279 27.989C19.2613 27.349 19.9012 26.9224 20.5412 27.0557Z" fill="#EF4E23"/>
    <path fill-rule="evenodd" clip-rule="evenodd" d="M7.42231 23.3226C8.8889 23.6159 9.82218 25.0558 9.52886 26.4957C9.23554 27.9623 7.82229 28.8956 6.35571 28.6023C4.88913 28.309 3.95585 26.8957 4.24917 25.4291C4.54248 23.9892 5.95573 23.0293 7.42231 23.3226Z" fill="#EF4E23"/>
    <path fill-rule="evenodd" clip-rule="evenodd" d="M2.942 19.5361C3.44864 19.6428 3.79528 20.1494 3.68862 20.6561C3.58196 21.1627 3.07532 21.5093 2.56869 21.4027C2.06205 21.296 1.7154 20.7894 1.82206 20.2827C1.95539 19.7494 2.43536 19.4295 2.942 19.5361Z" fill="#EF4E23"/>
    <path fill-rule="evenodd" clip-rule="evenodd" d="M50.9928 13.4031C50.9928 10.6033 49.3396 8.92341 46.5398 8.92341C43.7399 8.92341 42.0867 10.6033 42.0867 13.4031V18.6028C42.0867 21.4027 43.7399 23.0826 46.5398 23.0826C49.3396 23.0826 50.9928 21.4027 50.9928 18.6028V13.4031ZM53.4194 18.4162C53.4194 22.5226 50.6728 25.3224 46.5398 25.3224C42.4333 25.3224 39.6602 22.5226 39.6602 18.4162V13.5898C39.6602 9.48337 42.4333 6.68353 46.5398 6.68353C50.6728 6.68353 53.4194 9.48337 53.4194 13.5898V18.4162Z" fill="white"/>
    <path fill-rule="evenodd" clip-rule="evenodd" d="M69.2585 13.0298C69.2585 10.4433 67.7119 8.92339 65.1788 8.92339C63.7388 8.92339 62.3523 9.13671 61.0723 9.53669V24.1225C61.0723 24.8158 60.539 25.3491 59.8457 25.3491C59.1791 25.3491 58.6191 24.8158 58.6191 24.1225V9.13671C58.6191 8.41675 59.0724 7.80346 59.7657 7.56347C61.4456 6.95017 63.2855 6.65686 65.1788 6.65686C69.0719 6.65686 71.685 9.2967 71.685 13.2165V24.0958C71.685 24.7891 71.1517 25.3224 70.4585 25.3224C69.7652 25.3224 69.2319 24.7891 69.2319 24.0958V13.0298H69.2585Z" fill="white"/>
    <path fill-rule="evenodd" clip-rule="evenodd" d="M77.418 4.04367C77.418 3.35038 77.9513 2.81708 78.6446 2.81708C79.3379 2.81708 79.8712 3.35038 79.8712 4.04367V7.0035H83.9776C84.6175 7.0035 85.1508 7.51014 85.1508 8.17676C85.1508 8.84339 84.6175 9.32337 83.9776 9.32337H79.8712V20.4694C79.8712 22.016 80.8844 22.9492 82.1377 22.9492C82.671 22.9492 83.6843 22.8159 84.0309 22.8159C84.5375 22.8159 85.1775 23.2426 85.1775 23.9625C85.1775 24.5491 84.7775 25.0291 84.1642 25.1358C83.4709 25.2424 82.8043 25.3224 82.111 25.3224C79.5245 25.3224 77.418 23.3225 77.418 20.416V4.04367Z" fill="white"/>
    <path fill-rule="evenodd" clip-rule="evenodd" d="M99.7904 13.4031C99.7904 10.6033 98.1371 8.92341 95.3373 8.92341C92.5375 8.92341 90.8842 10.6033 90.8842 13.4031V18.6028C90.8842 21.4027 92.5375 23.0826 95.3373 23.0826C98.1371 23.0826 99.7904 21.4027 99.7904 18.6028V13.4031ZM102.244 18.4162C102.244 22.5226 99.4971 25.3224 95.364 25.3224C91.2575 25.3224 88.4844 22.5226 88.4844 18.4162V13.5898C88.4844 9.48337 91.2309 6.68353 95.364 6.68353C99.4704 6.68353 102.244 9.48337 102.244 13.5898V18.4162Z" fill="white"/>
    <path fill-rule="evenodd" clip-rule="evenodd" d="M107.257 4.04367C107.257 3.35038 107.79 2.81708 108.483 2.81708C109.177 2.81708 109.71 3.35038 109.71 4.04367V7.0035H113.816C114.456 7.0035 114.99 7.51014 114.99 8.17676C114.99 8.84339 114.456 9.32337 113.816 9.32337H109.71V20.4694C109.71 22.016 110.697 22.9492 111.977 22.9492C112.51 22.9492 113.523 22.8159 113.87 22.8159C114.376 22.8159 115.016 23.2426 115.016 23.9625C115.016 24.5491 114.616 25.0291 114.003 25.1358C113.31 25.2424 112.643 25.3224 111.95 25.3224C109.363 25.3224 107.257 23.3225 107.257 20.416V4.04367Z" fill="white"/>
    <path fill-rule="evenodd" clip-rule="evenodd" d="M129.015 13.0298C129.015 10.4433 127.468 8.92339 124.935 8.92339C122.349 8.92339 120.829 10.47 120.829 13.0298V14.4964H129.042V13.0298H129.015ZM120.829 16.7629V18.7628C120.829 21.3493 122.375 23.0559 124.935 23.0559C126.375 23.0559 127.735 22.6293 129.015 22.0426C129.202 21.9626 129.335 21.936 129.522 21.936C130.215 21.936 130.748 22.4426 130.748 23.0826C130.748 23.5359 130.508 23.9359 130.082 24.1492C128.482 24.9225 126.749 25.2958 124.962 25.2958C121.016 25.2958 118.402 22.6559 118.402 18.7362V13.1898C118.402 9.2967 121.016 6.63019 124.962 6.63019C128.855 6.63019 131.468 9.27004 131.468 13.1898V15.0564C131.468 15.9897 130.722 16.7363 129.788 16.7363H120.829V16.7629Z" fill="white"/>
    <path fill-rule="evenodd" clip-rule="evenodd" d="M141.441 18.0429L137.094 24.7358C136.881 25.0825 136.481 25.3224 136.081 25.3224C135.441 25.3224 134.854 24.8158 134.854 24.0692C134.854 23.8559 134.881 23.6425 135.041 23.4292L140.028 15.9097L135.201 8.57676C135.068 8.36344 134.988 8.12345 134.988 7.91013C134.988 7.29683 135.521 6.68353 136.214 6.68353C136.614 6.68353 137.014 6.89686 137.254 7.27017L141.441 13.7765L145.627 7.27017C145.841 6.92352 146.24 6.68353 146.64 6.68353C147.254 6.68353 147.867 7.19017 147.867 7.91013C147.867 8.12345 147.787 8.36344 147.654 8.57676L142.827 15.9097L147.814 23.4292C147.947 23.6425 148 23.8559 148 24.0692C148 24.7091 147.547 25.3224 146.774 25.3224C146.374 25.3224 145.974 25.1091 145.761 24.7358L141.441 18.0429Z" fill="white"/>
    <path fill-rule="evenodd" clip-rule="evenodd" d="M152.24 4.04367C152.24 3.35038 152.774 2.81708 153.467 2.81708C154.16 2.81708 154.693 3.35038 154.693 4.04367V7.0035H158.8C159.44 7.0035 159.973 7.51014 159.973 8.17676C159.973 8.84339 159.44 9.32337 158.8 9.32337H154.693V20.4694C154.693 22.016 155.707 22.9492 156.96 22.9492C157.493 22.9492 158.507 22.8159 158.853 22.8159C159.36 22.8159 160 23.2426 160 23.9625C160 24.5491 159.6 25.0291 158.987 25.1358C158.293 25.2424 157.627 25.3224 156.933 25.3224C154.347 25.3224 152.24 23.3225 152.24 20.416V4.04367Z" fill="white"/>
</svg>
